<svg height="1080" width="1920" xmlns="http://www.w3.org/2000/svg">
<rect fill="white" height="1080" width="1920" x="0" y="0"/>
<path d="M960,540 l0.000000000000013042489,-213" stroke="violet"/>
<path d="M960,327 l213,-0" stroke="violet"/>
<path d="M1173,327 l0.000000000000013042489,213" stroke="violet"/>
<path d="M1173,540 l-213,0.000000000000026084978" stroke="violet"/>
<path d="M960,540 l46.88501,-265.8981" stroke="yellow"/>
<path d="M1006.885,274.1019 l265.8981,46.88501" stroke="yellow"/>
<path d="M1272.7831,320.9869 l-46.88501,265.8981" stroke="yellow"/>
<path d="M1225.8981,586.885 l-265.8981,-46.88501" stroke="yellow"/>
<path d="M960,540 l7.866463,-21.61293" stroke="black"/>
<path d="M967.86646,518.3871 l21.61293,7.866463" stroke="black"/>
<path d="M989.4794,526.25354 l-7.866463,21.61293" stroke="black"/>
<path d="M981.6129,547.86646 l-21.61293,-7.866463" stroke="black"/>
<path d="M960,540 l148.5,-257.20953" stroke="red"/>
<path d="M1108.5,282.79047 l257.20953,148.5" stroke="red"/>
<path d="M1365.7096,431.29047 l-148.5,257.20953" stroke="red"/>
<path d="M1217.2096,688.5 l-257.20953,-148.5" stroke="red"/>
<path d="M960,540 l160.6969,-191.51111" stroke="red"/>
<path d="M1120.6969,348.4889 l191.51111,160.6969" stroke="red"/>
<path d="M1312.208,509.1858 l-160.6969,191.51111" stroke="red"/>
<path d="M1151.5111,700.6969 l-191.51111,-160.6969" stroke="red"/>
<path d="M960,540 l72.00818,-60.422035" stroke="orange"/>
<path d="M1032.0082,479.57797 l60.422035,72.00818" stroke="orange"/>
<path d="M1092.4302,551.5861 l-72.00818,60.422035" stroke="orange"/>
<path d="M1020.42206,612.0082 l-60.422035,-72.00818" stroke="orange"/>
<path d="M960,540 l205.24802,-118.5" stroke="black"/>
<path d="M1165.248,421.5 l118.5,205.24802" stroke="black"/>
<path d="M1283.748,626.74805 l-205.24802,118.5" stroke="black"/>
<path d="M1078.5,745.24805 l-118.5,-205.24802" stroke="black"/>
<path d="M960,540 l292.24442,-106.36826" stroke="blue"/>
<path d="M1252.2444,433.63174 l106.36826,292.24442" stroke="blue"/>
<path d="M1358.6127,725.87616 l-292.24442,106.36826" stroke="blue"/>
<path d="M1066.3683,832.2444 l-106.36826,-292.24442" stroke="blue"/>
<path d="M960,540 l292.4879,-51.57351" stroke="orange"/>
<path d="M1252.4879,488.42648 l51.57351,292.4879" stroke="orange"/>
<path d="M1304.0614,780.91437 l-292.4879,51.57351" stroke="orange"/>
<path d="M1011.5735,832.4879 l-51.57351,-292.4879" stroke="orange"/>
<path d="M960,540 l52,0.0000000000021022665" stroke="black"/>
<path d="M1012,540 l-0.000000000002191453,52" stroke="black"/>
<path d="M1012,592 l-52,-0.0000000000022806394" stroke="black"/>
<path d="M960,592 l0.000000000002369826,-52" stroke="black"/>
<path d="M960,540 l386.04465,68.07008" stroke="yellow"/>
<path d="M1346.0447,608.07007 l-68.07008,386.04465" stroke="yellow"/>
<path d="M1277.9746,994.11475 l-386.04465,-68.07008" stroke="yellow"/>
<path d="M891.92993,926.0446 l68.07008,-386.04465" stroke="yellow"/>
<path d="M960,540 l334.53058,121.75917" stroke="orange"/>
<path d="M1294.5305,661.75916 l-121.75917,334.53058" stroke="orange"/>
<path d="M1172.7714,996.28973 l-334.53058,-121.75917" stroke="orange"/>
<path d="M838.24084,874.5306 l121.75917,-334.53058" stroke="orange"/>
<path d="M960,540 l12.124355,7" stroke="red"/>
<path d="M972.1243,547 l-7,12.124355" stroke="red"/>
<path d="M965.1243,559.1243 l-12.124355,-7" stroke="red"/>
<path d="M953,552.1243 l7,-12.124355" stroke="red"/>
<path d="M960,540 l196.10738,164.55363" stroke="violet"/>
<path d="M1156.1074,704.55365 l-164.55363,196.10738" stroke="violet"/>
<path d="M991.5538,900.661 l-196.10738,-164.55363" stroke="violet"/>
<path d="M795.44635,736.10736 l164.55363,-196.10738" stroke="violet"/>
<path d="M960,540 l85.49075,101.88391" stroke="blue"/>
<path d="M1045.4907,641.8839 l-101.88391,85.49075" stroke="blue"/>
<path d="M943.6068,727.37463 l-85.49075,-101.88391" stroke="blue"/>
<path d="M858.1161,625.4907 l101.88391,-85.49075" stroke="blue"/>
<path d="M960,540 l185.5,321.2954" stroke="blue"/>
<path d="M1145.5,861.2954 l-321.2954,185.5" stroke="blue"/>
<path d="M824.2046,1046.7954 l-185.5,-321.2954" stroke="blue"/>
<path d="M638.7046,725.5 l321.2954,-185.5" stroke="blue"/>
<path d="M960,540 l44.804638,123.09973" stroke="orange"/>
<path d="M1004.8046,663.09973 l-123.09973,44.804638" stroke="orange"/>
<path d="M881.7049,707.90436 l-44.804638,-123.09973" stroke="orange"/>
<path d="M836.90027,584.8046 l123.09973,-44.804638" stroke="orange"/>
<path d="M960,540 l62.686993,355.5156" stroke="blue"/>
<path d="M1022.687,895.5156 l-355.5156,62.686993" stroke="blue"/>
<path d="M667.1714,958.2026 l-62.686993,-355.5156" stroke="blue"/>
<path d="M604.4844,602.687 l355.5156,-62.686993" stroke="blue"/>
<path d="M960,540 l0.00000000000501295,33" stroke="green"/>
<path d="M960,573 l-33,0.00000000000519083" stroke="green"/>
<path d="M927,573 l-0.0000000000053687103,-33" stroke="green"/>
<path d="M927,540 l33,-0.00000000000554659" stroke="green"/>
<path d="M960,540 l-63.72888,361.42444" stroke="orange"/>
<path d="M896.2711,901.42444 l-361.42444,-63.72888" stroke="orange"/>
<path d="M534.8467,837.69556 l63.72888,-361.42444" stroke="orange"/>
<path d="M598.57556,476.27112 l361.42444,63.72888" stroke="orange"/>
<path d="M960,540 l-66.69393,183.24007" stroke="green"/>
<path d="M893.3061,723.24005 l-183.24007,-66.69393" stroke="green"/>
<path d="M710.06604,656.54614 l66.69393,-183.24007" stroke="green"/>
<path d="M776.75995,473.30606 l183.24007,66.69393" stroke="green"/>
<path d="M960,540 l-131.5,227.76468" stroke="black"/>
<path d="M828.5,767.7647 l-227.76468,-131.5" stroke="black"/>
<path d="M600.7353,636.2647 l131.5,-227.76468" stroke="black"/>
<path d="M732.2353,408.5 l227.76468,131.5" stroke="black"/>
<path d="M960,540 l-57.208096,68.177956" stroke="violet"/>
<path d="M902.79193,608.178 l-68.177956,-57.208096" stroke="violet"/>
<path d="M834.61395,550.96985 l57.208096,-68.177956" stroke="violet"/>
<path d="M891.822,482.7919 l68.177956,57.208096" stroke="violet"/>
<path d="M960,540 l-281.90436,236.54584" stroke="red"/>
<path d="M678.09564,776.54584 l-236.54584,-281.90436" stroke="red"/>
<path d="M441.5498,494.64148 l281.90436,-236.54584" stroke="red"/>
<path d="M723.45416,258.09564 l236.54584,281.90436" stroke="red"/>
<path d="M960,540 l-167.1429,96.5" stroke="red"/>
<path d="M792.8571,636.5 l-96.5,-167.1429" stroke="red"/>
<path d="M696.3571,469.3571 l167.1429,-96.5" stroke="red"/>
<path d="M863.5,372.8571 l96.5,167.1429" stroke="red"/>
<path d="M960,540 l-86.45172,31.465853" stroke="green"/>
<path d="M873.5483,571.4659 l-31.465853,-86.45172" stroke="green"/>
<path d="M842.0824,485.01413 l86.45172,-31.465853" stroke="green"/>
<path d="M928.5341,453.54828 l31.465853,86.45172" stroke="green"/>
<path d="M960,540 l-259.00443,45.66947" stroke="violet"/>
<path d="M700.99554,585.6695 l-45.66947,-259.00443" stroke="violet"/>
<path d="M655.3261,326.66504 l259.00443,-45.66947" stroke="violet"/>
<path d="M914.3305,280.99557 l45.66947,259.00443" stroke="violet"/>
<path d="M960,540 l-83,0.00000000003034145" stroke="green"/>
<path d="M877,540 l-0.000000000030788844,-83" stroke="green"/>
<path d="M877,457 l83,-0.00000000003123624" stroke="green"/>
<path d="M960,457 l0.000000000031683635,83" stroke="green"/>
<path d="M960,540 l-193.02232,-34.03504" stroke="green"/>
<path d="M766.97766,505.96497 l34.03504,-193.02232" stroke="green"/>
<path d="M801.0127,312.94263 l193.02232,34.03504" stroke="green"/>
<path d="M994.03503,346.9777 l-34.03504,193.02232" stroke="green"/>
<path d="M960,540 l-180.42099,-65.66787" stroke="orange"/>
<path d="M779.57904,474.33212 l65.66787,-180.42099" stroke="orange"/>
<path d="M845.2469,293.91116 l180.42099,65.66787" stroke="orange"/>
<path d="M1025.6678,359.579 l-65.66787,180.42099" stroke="orange"/>
<path d="M960,540 l-67.54998,-39" stroke="green"/>
<path d="M892.45,501 l39,-67.54998" stroke="green"/>
<path d="M931.45,433.45 l67.54998,39" stroke="green"/>
<path d="M999,472.45 l-39,67.54998" stroke="green"/>
<path d="M960,540 l-242.07004,-203.12088" stroke="violet"/>
<path d="M717.92993,336.87912 l203.12088,-242.07004" stroke="violet"/>
<path d="M921.05084,94.809074 l242.07004,203.12088" stroke="violet"/>
<path d="M1163.1208,297.92996 l-203.12088,242.07004" stroke="violet"/>
<path d="M960,540 l-215.33385,-256.62488" stroke="black"/>
<path d="M744.66614,283.37512 l256.62488,-215.33385" stroke="black"/>
<path d="M1001.291,68.04126 l215.33385,256.62488" stroke="black"/>
<path d="M1216.6249,324.66614 l-256.62488,215.33385" stroke="black"/>
<path d="M960,540 l-132.5,-229.49673" stroke="yellow"/>
<path d="M827.5,310.50327 l229.49673,-132.5" stroke="yellow"/>
<path d="M1056.9967,178.00327 l132.5,229.49673" stroke="yellow"/>
<path d="M1189.4967,407.5 l-229.49673,132.5" stroke="yellow"/>
<path d="M960,540 l-104.658165,-287.54593" stroke="violet"/>
<path d="M855.34186,252.45406 l287.54593,-104.658165" stroke="violet"/>
<path d="M1142.8878,147.7959 l104.658165,287.54593" stroke="violet"/>
<path d="M1247.5459,435.34183 l-287.54593,104.658165" stroke="violet"/>
<path d="M960,540 l-46.016766,-260.97406" stroke="black"/>
<path d="M913.9832,279.02594 l260.97406,-46.016766" stroke="black"/>
<path d="M1174.9573,233.00919 l46.016766,260.97406" stroke="black"/>
<path d="M1220.974,493.98325 l-260.97406,46.016766" stroke="black"/>
</svg>