<svg height="1080" width="1920" xmlns="http://www.w3.org/2000/svg">
<rect fill="white" height="1080" width="1920" x="0" y="0"/>
<path d="M960,540 l0.000000000000016961359,-277" stroke="red"/>
<path d="M960,263 l277,-0" stroke="red"/>
<path d="M1237,263 l0.000000000000016961359,277" stroke="red"/>
<path d="M1237,540 l-277,0.000000000000033922717" stroke="red"/>
<path d="M960,540 l55.22012,-313.16885" stroke="black"/>
<path d="M1015.2201,226.83113 l313.16885,55.22012" stroke="black"/>
<path d="M1328.389,282.05127 l-55.22012,313.16885" stroke="black"/>
<path d="M1273.1688,595.2201 l-313.16885,-55.22012" stroke="black"/>
<path d="M960,540 l96.7917,-265.933" stroke="orange"/>
<path d="M1056.7917,274.067 l265.933,96.7917" stroke="orange"/>
<path d="M1322.7247,370.8587 l-96.7917,265.933" stroke="orange"/>
<path d="M1225.933,636.7917 l-265.933,-96.7917" stroke="orange"/>
<path d="M960,540 l2.5,-4.3301272" stroke="black"/>
<path d="M962.5,535.66986 l4.3301272,2.5" stroke="black"/>
<path d="M966.83014,538.16986 l-2.5,4.3301272" stroke="black"/>
<path d="M964.33014,542.5 l-4.3301272,-2.5" stroke="black"/>
<path d="M960,540 l180.62332,-215.25848" stroke="yellow"/>
<path d="M1140.6233,324.74152 l215.25848,180.62332" stroke="yellow"/>
<path d="M1355.8818,505.36484 l-180.62332,215.25848" stroke="yellow"/>
<path d="M1175.2585,720.6233 l-215.25848,-180.62332" stroke="yellow"/>
<path d="M960,540 l184.61671,-154.91182" stroke="black"/>
<path d="M1144.6167,385.0882 l154.91182,184.61671" stroke="black"/>
<path d="M1299.5286,569.7049 l-184.61671,154.91182" stroke="black"/>
<path d="M1114.9119,724.6167 l-154.91182,-184.61671" stroke="black"/>
<path d="M960,540 l161.94675,-93.5" stroke="green"/>
<path d="M1121.9468,446.5 l93.5,161.94675" stroke="green"/>
<path d="M1215.4468,608.4468 l-161.94675,93.5" stroke="green"/>
<path d="M1053.5,701.9468 l-93.5,-161.94675" stroke="green"/>
<path d="M960,540 l186.05914,-67.719986" stroke="green"/>
<path d="M1146.0591,472.28 l67.719986,186.05914" stroke="green"/>
<path d="M1213.7792,658.3392 l-186.05914,67.719986" stroke="green"/>
<path d="M1027.72,726.05914 l-67.719986,-186.05914" stroke="green"/>
<path d="M960,540 l290.51828,-51.22621" stroke="black"/>
<path d="M1250.5183,488.77377 l51.22621,290.51828" stroke="black"/>
<path d="M1301.7445,779.29205 l-290.51828,51.22621" stroke="black"/>
<path d="M1011.2262,830.5183 l-51.22621,-290.51828" stroke="black"/>
<path d="M960,540 l57,0.0000000000023044073" stroke="red"/>
<path d="M1017,540 l-0.0000000000024021694,57" stroke="red"/>
<path d="M1017,597 l-57,-0.0000000000024999317" stroke="red"/>
<path d="M960,597 l0.0000000000025976938,-57" stroke="red"/>
<path d="M960,540 l339.75867,59.908623" stroke="black"/>
<path d="M1299.7587,599.9086 l-59.908623,339.75867" stroke="black"/>
<path d="M1239.8501,939.6673 l-339.75867,-59.908623" stroke="black"/>
<path d="M900.0914,879.75867 l59.908623,-339.75867" stroke="black"/>
<path d="M960,540 l75.17541,27.361612" stroke="green"/>
<path d="M1035.1754,567.36163 l-27.361612,75.17541" stroke="green"/>
<path d="M1007.8138,642.53705 l-75.17541,-27.361612" stroke="green"/>
<path d="M932.63837,615.1754 l27.361612,-75.17541" stroke="green"/>
<path d="M960,540 l57.157677,33" stroke="yellow"/>
<path d="M1017.15765,573 l-33,57.157677" stroke="yellow"/>
<path d="M984.15765,630.15765 l-57.157677,-33" stroke="yellow"/>
<path d="M927,597.15765 l33,-57.157677" stroke="yellow"/>
<path d="M960,540 l32.93991,27.639868" stroke="green"/>
<path d="M992.93994,567.6399 l-27.639868,32.93991" stroke="green"/>
<path d="M965.30005,600.5798 l-32.93991,-27.639868" stroke="green"/>
<path d="M932.3601,572.93994 l27.639868,-32.93991" stroke="green"/>
<path d="M960,540 l32.13938,38.302223" stroke="blue"/>
<path d="M992.1394,578.30225 l-38.302223,32.13938" stroke="blue"/>
<path d="M953.83716,610.4416 l-32.13938,-38.302223" stroke="blue"/>
<path d="M921.69775,572.1394 l38.302223,-32.13938" stroke="blue"/>
<path d="M960,540 l57,98.7269" stroke="violet"/>
<path d="M1017,638.72687 l-98.7269,57" stroke="violet"/>
<path d="M918.27313,695.72687 l-57,-98.7269" stroke="violet"/>
<path d="M861.27313,597 l98.7269,-57" stroke="violet"/>
<path d="M960,540 l50.276962,138.13481" stroke="green"/>
<path d="M1010.277,678.1348 l-138.13481,50.276962" stroke="green"/>
<path d="M872.14215,728.4118 l-50.276962,-138.13481" stroke="green"/>
<path d="M821.8652,590.277 l138.13481,-50.276962" stroke="green"/>
<path d="M960,540 l61.9924,351.57635" stroke="orange"/>
<path d="M1021.9924,891.57635 l-351.57635,61.9924" stroke="orange"/>
<path d="M670.416,953.5688 l-61.9924,-351.57635" stroke="orange"/>
<path d="M608.42365,601.9924 l351.57635,-61.9924" stroke="orange"/>
<path d="M960,540 l0.0000000000540791,356" stroke="yellow"/>
<path d="M960,896 l-356,0.000000000055998046" stroke="yellow"/>
<path d="M604,896 l-0.000000000057916994,-356" stroke="yellow"/>
<path d="M604,540 l356,-0.00000000005983594" stroke="yellow"/>
<path d="M960,540 l-61.471455,348.62195" stroke="blue"/>
<path d="M898.52856,888.62195 l-348.62195,-61.471455" stroke="blue"/>
<path d="M549.9066,827.1505 l61.471455,-348.62195" stroke="blue"/>
<path d="M611.37805,478.52853 l348.62195,61.471455" stroke="blue"/>
<path d="M960,540 l-110.130486,302.58102" stroke="yellow"/>
<path d="M849.8695,842.581 l-302.58102,-110.130486" stroke="yellow"/>
<path d="M547.2885,732.45056 l110.130486,-302.58102" stroke="yellow"/>
<path d="M657.419,429.8695 l302.58102,110.130486" stroke="yellow"/>
<path d="M960,540 l-58.5,101.324974" stroke="violet"/>
<path d="M901.5,641.32495 l-101.324974,-58.5" stroke="violet"/>
<path d="M800.17505,582.82495 l58.5,-101.324974" stroke="violet"/>
<path d="M858.67505,481.5 l101.324974,58.5" stroke="violet"/>
<path d="M960,540 l-54.636948,65.11378" stroke="orange"/>
<path d="M905.36304,605.1138 l-65.11378,-54.636948" stroke="orange"/>
<path d="M840.24927,550.4768 l54.636948,-65.11378" stroke="orange"/>
<path d="M894.8862,485.36307 l65.11378,54.636948" stroke="orange"/>
<path d="M960,540 l-185.38275,155.5546" stroke="green"/>
<path d="M774.61725,695.5546 l-155.5546,-185.38275" stroke="green"/>
<path d="M619.0626,510.17184 l185.38275,-155.5546" stroke="green"/>
<path d="M804.4454,354.61725 l155.5546,185.38275" stroke="green"/>
<path d="M960,540 l-12.990381,7.5" stroke="black"/>
<path d="M947.00964,547.5 l-7.5,-12.990381" stroke="black"/>
<path d="M939.50964,534.50964 l12.990381,-7.5" stroke="black"/>
<path d="M952.5,527.00964 l7.5,12.990381" stroke="black"/>
<path d="M960,540 l-218.94838,79.6907" stroke="red"/>
<path d="M741.05164,619.6907 l-79.6907,-218.94838" stroke="red"/>
<path d="M661.3609,400.7423 l218.94838,-79.6907" stroke="red"/>
<path d="M880.3093,321.0516 l79.6907,218.94838" stroke="red"/>
<path d="M960,540 l-283.62463,50.010674" stroke="black"/>
<path d="M676.37537,590.0107 l-50.010674,-283.62463" stroke="black"/>
<path d="M626.3647,306.38605 l283.62463,-50.010674" stroke="black"/>
<path d="M909.9893,256.37537 l50.010674,283.62463" stroke="black"/>
<path d="M960,540 l-138,0.00000000005044723" stroke="green"/>
<path d="M822,540 l-0.000000000051191093,-138" stroke="green"/>
<path d="M822,402 l138,-0.000000000051934953" stroke="green"/>
<path d="M960,402 l0.000000000052678816,138" stroke="green"/>
<path d="M960,540 l-112.26808,-19.795893" stroke="blue"/>
<path d="M847.73193,520.2041 l19.795893,-112.26808" stroke="blue"/>
<path d="M867.52783,407.93604 l112.26808,19.795893" stroke="blue"/>
<path d="M979.7959,427.7319 l-19.795893,112.26808" stroke="blue"/>
<path d="M960,540 l-180.42099,-65.66787" stroke="yellow"/>
<path d="M779.57904,474.33212 l65.66787,-180.42099" stroke="yellow"/>
<path d="M845.2469,293.91116 l180.42099,65.66787" stroke="yellow"/>
<path d="M1025.6678,359.579 l-65.66787,180.42099" stroke="yellow"/>
<path d="M960,540 l-342.08005,-197.5" stroke="green"/>
<path d="M617.92,342.5 l197.5,-342.08005" stroke="green"/>
<path d="M815.42,0.4199655 l342.08005,197.5" stroke="green"/>
<path d="M1157.5,197.91997 l-197.5,342.08005" stroke="green"/>
<path d="M960,540 l-29.875732,-25.068716" stroke="green"/>
<path d="M930.12427,514.9313 l25.068716,-29.875732" stroke="green"/>
<path d="M955.193,485.05554 l29.875732,25.068716" stroke="green"/>
<path d="M985.0687,510.12427 l-25.068716,29.875732" stroke="green"/>
<path d="M960,540 l-133.69983,-159.33725" stroke="green"/>
<path d="M826.3002,380.66275 l159.33725,-133.69983" stroke="green"/>
<path d="M985.63745,246.96294 l133.69983,159.33725" stroke="green"/>
<path d="M1119.3373,406.30017 l-159.33725,133.69983" stroke="green"/>
<path d="M960,540 l-50,-86.60254" stroke="violet"/>
<path d="M910,453.39746 l86.60254,-50" stroke="violet"/>
<path d="M996.60254,403.39746 l50,86.60254" stroke="violet"/>
<path d="M1046.6025,490 l-86.60254,50" stroke="violet"/>
<path d="M960,540 l-101.57998,-279.0887" stroke="blue"/>
<path d="M858.42004,260.9113 l279.0887,-101.57998" stroke="blue"/>
<path d="M1137.5087,159.33131 l101.57998,279.0887" stroke="blue"/>
<path d="M1239.0887,438.42 l-279.0887,101.57998" stroke="blue"/>
<path d="M960,540 l-53.48364,-303.3208" stroke="yellow"/>
<path d="M906.51636,236.67921 l303.3208,-53.48364" stroke="yellow"/>
<path d="M1209.8372,183.19557 l53.48364,303.3208" stroke="yellow"/>
<path d="M1263.3208,486.51636 l-303.3208,53.48364" stroke="yellow"/>
</svg>