<svg height="1080" width="1920" xmlns="http://www.w3.org/2000/svg">
<rect fill="white" height="1080" width="1920" x="0" y="0"/>
<path d="M960,540 l0.0000000000000084500625,-138" stroke="black"/>
<path d="M960,402 l138,-0" stroke="black"/>
<path d="M1098,402 l0.0000000000000084500625,138" stroke="black"/>
<path d="M1098,540 l-138,0.000000000000016900125" stroke="black"/>
<path d="M960,540 l19.96954,-113.25289" stroke="orange"/>
<path d="M979.96954,426.7471 l113.25289,19.96954" stroke="orange"/>
<path d="M1093.2224,446.71664 l-19.96954,113.25289" stroke="orange"/>
<path d="M1073.2529,559.96954 l-113.25289,-19.96954" stroke="orange"/>
<path d="M960,540 l79.00665,-217.069" stroke="green"/>
<path d="M1039.0067,322.931 l217.069,79.00665" stroke="green"/>
<path d="M1256.0757,401.93765 l-79.00665,217.069" stroke="green"/>
<path d="M1177.069,619.00665 l-217.069,-79.00665" stroke="green"/>
<path d="M960,540 l186,-322.16144" stroke="blue"/>
<path d="M1146,217.83855 l322.16144,186" stroke="blue"/>
<path d="M1468.1615,403.83856 l-186,322.16144" stroke="blue"/>
<path d="M1282.1615,726 l-322.16144,-186" stroke="blue"/>
<path d="M960,540 l91.27584,-108.77831" stroke="green"/>
<path d="M1051.2759,431.22168 l108.77831,91.27584" stroke="green"/>
<path d="M1160.0542,522.49756 l-91.27584,108.77831" stroke="green"/>
<path d="M1068.7783,631.2758 l-108.77831,-91.27584" stroke="green"/>
<path d="M960,540 l108.77831,-91.27584" stroke="red"/>
<path d="M1068.7783,448.72415 l91.27584,108.77831" stroke="red"/>
<path d="M1160.0542,557.50244 l-108.77831,91.27584" stroke="red"/>
<path d="M1051.2759,648.7783 l-91.27584,-108.77831" stroke="red"/>
<path d="M960,540 l282.32428,-163" stroke="green"/>
<path d="M1242.3243,377 l163,282.32428" stroke="green"/>
<path d="M1405.3243,659.3243 l-282.32428,163" stroke="green"/>
<path d="M1123,822.3243 l-163,-282.32428" stroke="green"/>
<path d="M960,540 l157.86836,-57.459385" stroke="orange"/>
<path d="M1117.8684,482.54062 l57.459385,157.86836" stroke="orange"/>
<path d="M1175.3278,640.409 l-157.86836,57.459385" stroke="orange"/>
<path d="M1017.4594,697.86835 l-57.459385,-157.86836" stroke="orange"/>
<path d="M960,540 l299.38156,-52.789047" stroke="blue"/>
<path d="M1259.3816,487.21097 l52.789047,299.38156" stroke="blue"/>
<path d="M1312.1707,786.5925 l-299.38156,52.789047" stroke="blue"/>
<path d="M1012.78906,839.38153 l-52.789047,-299.38156" stroke="blue"/>
<path d="M960,540 l142,0.0000000000057408045" stroke="green"/>
<path d="M1102,540 l-0.000000000005984352,142" stroke="green"/>
<path d="M1102,682 l-142,-0.0000000000062278997" stroke="green"/>
<path d="M960,682 l0.0000000000064714475,-142" stroke="green"/>
<path d="M960,540 l271.80695,47.926895" stroke="green"/>
<path d="M1231.8069,587.9269 l-47.926895,271.80695" stroke="green"/>
<path d="M1183.88,859.7338 l-271.80695,-47.926895" stroke="green"/>
<path d="M912.0731,811.80695 l47.926895,-271.80695" stroke="green"/>
<path d="M960,540 l256.53607,93.3715" stroke="green"/>
<path d="M1216.5361,633.3715 l-93.3715,256.53607" stroke="green"/>
<path d="M1123.1646,889.9076 l-256.53607,-93.3715" stroke="green"/>
<path d="M866.6285,796.5361 l93.3715,-256.53607" stroke="green"/>
<path d="M960,540 l180.99931,104.5" stroke="green"/>
<path d="M1140.9993,644.5 l-104.5,180.99931" stroke="green"/>
<path d="M1036.4993,825.4993 l-180.99931,-104.5" stroke="green"/>
<path d="M855.5,720.9993 l104.5,-180.99931" stroke="green"/>
<path d="M960,540 l160.10329,134.3426" stroke="yellow"/>
<path d="M1120.1033,674.3426 l-134.3426,160.10329" stroke="yellow"/>
<path d="M985.7607,834.4459 l-160.10329,-134.3426" stroke="yellow"/>
<path d="M825.6574,700.1033 l134.3426,-160.10329" stroke="yellow"/>
<path d="M960,540 l39.210045,46.72871" stroke="red"/>
<path d="M999.21,586.7287 l-46.72871,39.210045" stroke="red"/>
<path d="M952.4813,625.9388 l-39.210045,-46.72871" stroke="red"/>
<path d="M913.2713,579.21 l46.72871,-39.210045" stroke="red"/>
<path d="M960,540 l173,299.64478" stroke="violet"/>
<path d="M1133,839.6448 l-299.64478,173" stroke="violet"/>
<path d="M833.3552,1012.6448 l-173,-299.64478" stroke="violet"/>
<path d="M660.3552,713 l299.64478,-173" stroke="violet"/>
<path d="M960,540 l33.859993,93.02957" stroke="green"/>
<path d="M993.86,633.02954 l-93.02957,33.859993" stroke="green"/>
<path d="M900.83044,666.8896 l-33.859993,-93.02957" stroke="green"/>
<path d="M866.97046,573.86 l93.02957,-33.859993" stroke="green"/>
<path d="M960,540 l54.699177,310.21445" stroke="violet"/>
<path d="M1014.69916,850.2144 l-310.21445,54.699177" stroke="violet"/>
<path d="M704.48474,904.91364 l-54.699177,-310.21445" stroke="violet"/>
<path d="M649.7856,594.69916 l310.21445,-54.699177" stroke="violet"/>
<path d="M960,540 l0.000000000038584524,254" stroke="green"/>
<path d="M960,794 l-254,0.000000000039953662" stroke="green"/>
<path d="M706,794 l-0.0000000000413228,-254" stroke="green"/>
<path d="M706,540 l254,-0.000000000042691937" stroke="green"/>
<path d="M960,540 l-43.759342,248.17155" stroke="green"/>
<path d="M916.24066,788.1716 l-248.17155,-43.759342" stroke="green"/>
<path d="M668.0691,744.41223 l43.759342,-248.17155" stroke="green"/>
<path d="M711.8284,496.24066 l248.17155,43.759342" stroke="green"/>
<path d="M960,540 l-47.5408,130.61728" stroke="orange"/>
<path d="M912.4592,670.61725 l-130.61728,-47.5408" stroke="orange"/>
<path d="M781.8419,623.0765 l47.5408,-130.61728" stroke="orange"/>
<path d="M829.38275,492.4592 l130.61728,47.5408" stroke="orange"/>
<path d="M960,540 l-129.5,224.30058" stroke="red"/>
<path d="M830.5,764.3006 l-224.30058,-129.5" stroke="red"/>
<path d="M606.1994,634.8006 l129.5,-224.30058" stroke="red"/>
<path d="M735.6994,410.5 l224.30058,129.5" stroke="red"/>
<path d="M960,540 l-45.63792,54.389156" stroke="violet"/>
<path d="M914.36206,594.38916 l-54.389156,-45.63792" stroke="violet"/>
<path d="M859.9729,548.7512 l45.63792,-54.389156" stroke="violet"/>
<path d="M905.61084,494.3621 l54.389156,45.63792" stroke="violet"/>
<path d="M960,540 l-93.45742,78.42009" stroke="black"/>
<path d="M866.5426,618.4201 l-78.42009,-93.45742" stroke="black"/>
<path d="M788.1225,524.96265 l93.45742,-78.42009" stroke="black"/>
<path d="M881.5799,446.54257 l78.42009,93.45742" stroke="black"/>
<path d="M960,540 l-257.20953,148.5" stroke="violet"/>
<path d="M702.79047,688.5 l-148.5,-257.20953" stroke="violet"/>
<path d="M554.29047,431.29047 l257.20953,-148.5" stroke="violet"/>
<path d="M811.5,282.79047 l148.5,257.20953" stroke="violet"/>
<path d="M960,540 l-187.93852,68.40403" stroke="black"/>
<path d="M772.06146,608.40405 l-68.40403,-187.93852" stroke="black"/>
<path d="M703.6575,420.4655 l187.93852,-68.40403" stroke="black"/>
<path d="M891.59595,352.06146 l68.40403,187.93852" stroke="black"/>
<path d="M960,540 l-276.731,48.79514" stroke="yellow"/>
<path d="M683.26904,588.79517 l-48.79514,-276.731" stroke="yellow"/>
<path d="M634.4739,312.06415 l276.731,-48.79514" stroke="yellow"/>
<path d="M911.20483,263.269 l48.79514,276.731" stroke="yellow"/>
<path d="M960,540 l-148,0.000000000054102826" stroke="yellow"/>
<path d="M812,540 l-0.00000000005490059,-148" stroke="yellow"/>
<path d="M812,392 l148,-0.000000000055698356" stroke="yellow"/>
<path d="M960,392 l0.00000000005649612,148" stroke="yellow"/>
<path d="M960,540 l-177.2654,-31.256672" stroke="orange"/>
<path d="M782.7346,508.74332 l31.256672,-177.2654" stroke="orange"/>
<path d="M813.9913,331.47794 l177.2654,31.256672" stroke="orange"/>
<path d="M991.25665,362.73462 l-31.256672,177.2654" stroke="orange"/>
<path d="M960,540 l-46.98463,-17.101007" stroke="black"/>
<path d="M913.0154,522.899 l17.101007,-46.98463" stroke="black"/>
<path d="M930.1164,475.91437 l46.98463,17.101007" stroke="black"/>
<path d="M977.101,493.01538 l-17.101007,46.98463" stroke="black"/>
<path d="M960,540 l-58.0237,-33.5" stroke="blue"/>
<path d="M901.9763,506.5 l33.5,-58.0237" stroke="blue"/>
<path d="M935.4763,448.4763 l58.0237,33.5" stroke="blue"/>
<path d="M993.5,481.9763 l-33.5,58.0237" stroke="blue"/>
<path d="M960,540 l-107.24622,-89.990265" stroke="blue"/>
<path d="M852.7538,450.00974 l89.990265,-107.24622" stroke="blue"/>
<path d="M942.744,342.76352 l107.24622,89.990265" stroke="blue"/>
<path d="M1049.9902,432.75378 l-89.990265,107.24622" stroke="blue"/>
<path d="M960,540 l-0,-0" stroke="green"/>
<path d="M960,540 l0,-0" stroke="green"/>
<path d="M960,540 l0,0" stroke="green"/>
<path d="M960,540 l-0,0" stroke="green"/>
<path d="M960,540 l-20.5,-35.507042" stroke="yellow"/>
<path d="M939.5,504.49295 l35.507042,-20.5" stroke="yellow"/>
<path d="M975.007,483.99295 l20.5,35.507042" stroke="yellow"/>
<path d="M995.507,519.5 l-35.507042,20.5" stroke="yellow"/>
<path d="M960,540 l-107.05231,-294.12378" stroke="orange"/>
<path d="M852.9477,245.8762 l294.12378,-107.05231" stroke="orange"/>
<path d="M1147.0715,138.8239 l107.05231,294.12378" stroke="orange"/>
<path d="M1254.1238,432.9477 l-294.12378,107.05231" stroke="orange"/>
<path d="M960,540 l-16.670225,-94.54154" stroke="yellow"/>
<path d="M943.3298,445.45847 l94.54154,-16.670225" stroke="yellow"/>
<path d="M1037.8713,428.78824 l16.670225,94.54154" stroke="yellow"/>
<path d="M1054.5415,523.3298 l-94.54154,16.670225" stroke="yellow"/>
</svg>