<svg height="1080" width="1920" xmlns="http://www.w3.org/2000/svg">
<rect fill="white" height="1080" width="1920" x="0" y="0"/>
<path d="M960,540 l0.00000000000000863376,-141" stroke="yellow"/>
<path d="M960,399 l141,-0" stroke="yellow"/>
<path d="M1101,399 l0.00000000000000863376,141" stroke="yellow"/>
<path d="M1101,540 l-141,0.00000000000001726752" stroke="yellow"/>
<path d="M960,540 l31.256672,-177.2654" stroke="violet"/>
<path d="M991.25665,362.73462 l177.2654,31.256672" stroke="violet"/>
<path d="M1168.5221,393.99127 l-31.256672,177.2654" stroke="violet"/>
<path d="M1137.2654,571.25665 l-177.2654,-31.256672" stroke="violet"/>
<path d="M960,540 l125.179375,-343.9275" stroke="orange"/>
<path d="M1085.1793,196.0725 l343.9275,125.179375" stroke="orange"/>
<path d="M1429.1068,321.25186 l-125.179375,343.9275" stroke="orange"/>
<path d="M1303.9275,665.1794 l-343.9275,-125.179375" stroke="orange"/>
<path d="M960,540 l63,-109.1192" stroke="green"/>
<path d="M1023,430.8808 l109.1192,63" stroke="green"/>
<path d="M1132.1191,493.8808 l-63,109.1192" stroke="green"/>
<path d="M1069.1191,603 l-109.1192,-63" stroke="green"/>
<path d="M960,540 l194.76465,-232.11147" stroke="violet"/>
<path d="M1154.7646,307.88852 l232.11147,194.76465" stroke="violet"/>
<path d="M1386.8761,502.65317 l-194.76465,232.11147" stroke="violet"/>
<path d="M1192.1115,734.76465 l-232.11147,-194.76465" stroke="violet"/>
<path d="M960,540 l225.21707,-188.97955" stroke="orange"/>
<path d="M1185.217,351.02045 l188.97955,225.21707" stroke="orange"/>
<path d="M1374.1967,576.2375 l-225.21707,188.97955" stroke="orange"/>
<path d="M1148.9796,765.21704 l-188.97955,-225.21707" stroke="orange"/>
<path d="M960,540 l174.0711,-100.5" stroke="blue"/>
<path d="M1134.0712,439.5 l100.5,174.0711" stroke="blue"/>
<path d="M1234.5712,613.5711 l-174.0711,100.5" stroke="blue"/>
<path d="M1060.5,714.0711 l-100.5,-174.0711" stroke="blue"/>
<path d="M960,540 l156.92867,-57.117363" stroke="blue"/>
<path d="M1116.9287,482.88263 l57.117363,156.92867" stroke="blue"/>
<path d="M1174.046,639.8113 l-156.92867,57.117363" stroke="blue"/>
<path d="M1017.1174,696.92865 l-57.117363,-156.92867" stroke="blue"/>
<path d="M960,540 l232.41463,-40.98097" stroke="blue"/>
<path d="M1192.4147,499.01904 l40.98097,232.41463" stroke="blue"/>
<path d="M1233.3956,731.43365 l-232.41463,40.98097" stroke="blue"/>
<path d="M1000.98096,772.4146 l-40.98097,-232.41463" stroke="blue"/>
<path d="M960,540 l371,0.000000000014998862" stroke="blue"/>
<path d="M1331,540 l-0.000000000015635174,371" stroke="blue"/>
<path d="M1331,911 l-371,-0.000000000016271484" stroke="blue"/>
<path d="M960,911 l0.000000000016907796,-371" stroke="blue"/>
<path d="M960,540 l336.80426,59.387676" stroke="red"/>
<path d="M1296.8042,599.3877 l-59.387676,336.80426" stroke="red"/>
<path d="M1237.4166,936.19196 l-336.80426,-59.387676" stroke="red"/>
<path d="M900.6123,876.80426 l59.387676,-336.80426" stroke="red"/>
<path d="M960,540 l358.0229,130.30968" stroke="violet"/>
<path d="M1318.023,670.3097 l-130.30968,358.0229" stroke="violet"/>
<path d="M1187.7133,1028.3325 l-358.0229,-130.30968" stroke="violet"/>
<path d="M829.6903,898.0229 l130.30968,-358.0229" stroke="violet"/>
<path d="M960,540 l331.68774,191.5" stroke="green"/>
<path d="M1291.6877,731.5 l-191.5,331.68774" stroke="green"/>
<path d="M1100.1877,1063.1877 l-331.68774,-191.5" stroke="green"/>
<path d="M768.5,871.68774 l191.5,-331.68774" stroke="green"/>
<path d="M960,540 l112.608536,94.48978" stroke="red"/>
<path d="M1072.6085,634.4898 l-94.48978,112.608536" stroke="red"/>
<path d="M978.1188,747.0983 l-112.608536,-94.48978" stroke="red"/>
<path d="M865.5102,652.6085 l94.48978,-112.608536" stroke="red"/>
<path d="M960,540 l187.69398,223.68498" stroke="black"/>
<path d="M1147.694,763.685 l-223.68498,187.69398" stroke="black"/>
<path d="M924.00903,951.37897 l-187.69398,-223.68498" stroke="black"/>
<path d="M736.315,727.694 l223.68498,-187.69398" stroke="black"/>
<path d="M960,540 l120,207.8461" stroke="violet"/>
<path d="M1080,747.84607 l-207.8461,120" stroke="violet"/>
<path d="M872.15393,867.84607 l-120,-207.8461" stroke="violet"/>
<path d="M752.15393,660 l207.8461,-120" stroke="violet"/>
<path d="M960,540 l4.788282,13.155697" stroke="black"/>
<path d="M964.78827,553.1557 l-13.155697,4.788282" stroke="black"/>
<path d="M951.63257,557.944 l-4.788282,-13.155697" stroke="black"/>
<path d="M946.8443,544.78827 l13.155697,-4.788282" stroke="black"/>
<path d="M960,540 l56.609306,321.04733" stroke="yellow"/>
<path d="M1016.6093,861.0473 l-321.04733,56.609306" stroke="yellow"/>
<path d="M695.56195,917.6566 l-56.609306,-321.04733" stroke="yellow"/>
<path d="M638.9527,596.6093 l321.04733,-56.609306" stroke="yellow"/>
<path d="M960,540 l0.00000000001883654,124" stroke="yellow"/>
<path d="M960,664 l-124,0.000000000019504938" stroke="yellow"/>
<path d="M836,664 l-0.000000000020173335,-124" stroke="yellow"/>
<path d="M836,540 l124,-0.000000000020841733" stroke="yellow"/>
<path d="M960,540 l-51.052563,289.53348" stroke="orange"/>
<path d="M908.94745,829.5335 l-289.53348,-51.052563" stroke="orange"/>
<path d="M619.41394,778.4809 l51.052563,-289.53348" stroke="orange"/>
<path d="M670.4665,488.94745 l289.53348,51.052563" stroke="orange"/>
<path d="M960,540 l-0,0" stroke="green"/>
<path d="M960,540 l-0,-0" stroke="green"/>
<path d="M960,540 l0,-0" stroke="green"/>
<path d="M960,540 l0,0" stroke="green"/>
<path d="M960,540 l-136.5,236.42494" stroke="blue"/>
<path d="M823.5,776.4249 l-236.42494,-136.5" stroke="blue"/>
<path d="M587.0751,639.9249 l136.5,-236.42494" stroke="blue"/>
<path d="M723.5751,403.5 l236.42494,136.5" stroke="blue"/>
<path d="M960,540 l-158.76854,189.21298" stroke="black"/>
<path d="M801.23145,729.21295 l-189.21298,-158.76854" stroke="black"/>
<path d="M612.0185,570.44446 l158.76854,-189.21298" stroke="black"/>
<path d="M770.78705,381.23145 l189.21298,158.76854" stroke="black"/>
<path d="M960,540 l-190.74507,160.05411" stroke="green"/>
<path d="M769.25494,700.05414 l-160.05411,-190.74507" stroke="green"/>
<path d="M609.2008,509.30905 l190.74507,-160.05411" stroke="green"/>
<path d="M799.94586,349.25494 l160.05411,190.74507" stroke="green"/>
<path d="M960,540 l-327.3576,189" stroke="orange"/>
<path d="M632.6424,729 l-189,-327.3576" stroke="orange"/>
<path d="M443.6424,401.6424 l327.3576,-189" stroke="orange"/>
<path d="M771,212.6424 l189,327.3576" stroke="orange"/>
<path d="M960,540 l-369.2992,134.41391" stroke="blue"/>
<path d="M590.7008,674.41394 l-134.41391,-369.2992" stroke="blue"/>
<path d="M456.2869,305.11472 l369.2992,-134.41391" stroke="blue"/>
<path d="M825.58606,170.7008 l134.41391,369.2992" stroke="blue"/>
<path d="M960,540 l-331.88022,58.519436" stroke="yellow"/>
<path d="M628.1198,598.5194 l-58.519436,-331.88022" stroke="yellow"/>
<path d="M569.60034,266.63922 l331.88022,-58.519436" stroke="yellow"/>
<path d="M901.4806,208.11978 l58.519436,331.88022" stroke="yellow"/>
<path d="M960,540 l-349,0.00000000012758031" stroke="red"/>
<path d="M611,540 l-0.00000000012946152,-349" stroke="red"/>
<path d="M611,191 l349,-0.00000000013134274" stroke="red"/>
<path d="M960,191 l0.00000000013322396,349" stroke="red"/>
<path d="M960,540 l-386.04465,-68.07008" stroke="blue"/>
<path d="M573.9554,471.9299 l68.07008,-386.04465" stroke="blue"/>
<path d="M642.02545,85.88528 l386.04465,68.07008" stroke="blue"/>
<path d="M1028.0701,153.95537 l-68.07008,386.04465" stroke="blue"/>
<path d="M960,540 l-109.94404,-40.016357" stroke="green"/>
<path d="M850.05597,499.98364 l40.016357,-109.94404" stroke="green"/>
<path d="M890.0723,390.0396 l109.94404,40.016357" stroke="green"/>
<path d="M1000.01636,430.05597 l-40.016357,109.94404" stroke="green"/>
<path d="M960,540 l-255.4775,-147.5" stroke="orange"/>
<path d="M704.5225,392.5 l147.5,-255.4775" stroke="orange"/>
<path d="M852.0225,137.0225 l255.4775,147.5" stroke="orange"/>
<path d="M1107.5,284.5225 l-147.5,255.4775" stroke="orange"/>
<path d="M960,540 l-225.21707,-188.97955" stroke="green"/>
<path d="M734.78296,351.02045 l188.97955,-225.21707" stroke="green"/>
<path d="M923.7625,125.803375 l225.21707,188.97955" stroke="green"/>
<path d="M1148.9796,314.78293 l-188.97955,225.21707" stroke="green"/>
<path d="M960,540 l-105.41717,-125.63129" stroke="black"/>
<path d="M854.5828,414.3687 l125.63129,-105.41717" stroke="black"/>
<path d="M980.2141,308.95154 l105.41717,125.63129" stroke="black"/>
<path d="M1085.6313,434.58282 l-125.63129,105.41717" stroke="black"/>
<path d="M960,540 l-101.5,-175.80316" stroke="red"/>
<path d="M858.5,364.19684 l175.80316,-101.5" stroke="red"/>
<path d="M1034.3031,262.69684 l101.5,175.80316" stroke="red"/>
<path d="M1135.8031,438.5 l-175.80316,101.5" stroke="red"/>
<path d="M960,540 l-38.306255,-105.245575" stroke="violet"/>
<path d="M921.6937,434.75443 l105.245575,-38.306255" stroke="violet"/>
<path d="M1026.9393,396.44818 l38.306255,105.245575" stroke="violet"/>
<path d="M1065.2456,501.69376 l-105.245575,38.306255" stroke="violet"/>
<path d="M960,540 l-0.52094454,-2.9544232" stroke="red"/>
<path d="M959.47906,537.0456 l2.9544232,-0.52094454" stroke="red"/>
<path d="M962.4335,536.52466 l0.52094454,2.9544232" stroke="red"/>
<path d="M962.9544,539.47906 l-2.9544232,0.52094454" stroke="red"/>
</svg>