<svg height="1080" width="1920" xmlns="http://www.w3.org/2000/svg">
<rect fill="white" height="1080" width="1920" x="0" y="0"/>
<text font-size="1" transform="rotate(-90 960 539.9666666666667)" x="960" y="539.9666666666667">
Logo
</text>
<text font-size="2" transform="rotate(-80 960.0231530903555 539.8686922995984)" x="960.0231530903555" y="539.8686922995984">
Logo
</text>
<text font-size="3" transform="rotate(-70 960.1026060429976 539.7180922137642)" x="960.1026060429976" y="539.7180922137642">
Logo
</text>
<text font-size="4" transform="rotate(-59.99999999999999 960.2666666666667 539.5381197846483)" x="960.2666666666667" y="539.5381197846483">
Logo
</text>
<text font-size="5" transform="rotate(-49.99999999999999 960.5356563414055 539.3616296307342)" x="960.5356563414055" y="539.3616296307342">
Logo
</text>
<text font-size="6" transform="rotate(-39.99999999999999 960.9192533317428 539.2286548683761)" x="960.9192533317428" y="539.2286548683761">
Logo
</text>
<text font-size="7" transform="rotate(-29.999999999999993 961.4145081595146 539.1833333333333)" x="961.4145081595146" y="539.1833333333333">
Logo
</text>
<text font-size="8" transform="rotate(-19.99999999999999 962.0046775910099 539.2703570275719)" x="962.0046775910099" y="539.2703570275719">
Logo
</text>
<text font-size="9" transform="rotate(-9.99999999999999 962.658980933133 539.5311499202993)" x="962.658980933133" y="539.5311499202993">
Logo
</text>
<text font-size="10" transform="rotate(0.00000000000000954166404439055 963.3333333333334 540)" x="963.3333333333334" y="540">
Logo
</text>
<text font-size="11" transform="rotate(10.000000000000009 963.9720579371492 540.7003809832567)" x="963.9720579371492" y="540.7003809832567">
Logo
</text>
<text font-size="12" transform="rotate(20.00000000000001 964.5105245797723 541.6416966879632)" x="964.5105245797723" y="541.6416966879632">
Logo
</text>
<text font-size="13" transform="rotate(30.00000000000001 964.8786097746523 542.8166666666667)" x="964.8786097746523" y="542.8166666666667">
Logo
</text>
<text font-size="14" transform="rotate(40.000000000000014 965.004823695044 544.1995457166187)" x="965.004823695044" y="544.1995457166187">
Logo
</text>
<text font-size="15" transform="rotate(50.000000000000014 964.820907072649 545.7453333233923)" x="964.820907072649" y="545.7453333233923">
Logo
</text>
<text font-size="16" transform="rotate(60.00000000000001 964.2666666666667 547.3900834456272)" x="964.2666666666667" y="547.3900834456272">
Logo
</text>
<text font-size="17" transform="rotate(70 963.2947940473706 549.0523722469043)" x="963.2947940473706" y="549.0523722469043">
Logo
</text>
<text font-size="18" transform="rotate(80.00000000000001 961.8754003188028 550.6359237325319)" x="961.8754003188028" y="550.6359237325319">
Logo
</text>
<text font-size="19" transform="rotate(90.00000000000001 960 552.0333333333333)" x="960" y="552.0333333333333">
Logo
</text>
<text font-size="20" transform="rotate(100.00000000000003 957.684690964441 553.1307700401628)" x="957.684690964441" y="553.1307700401628">
Logo
</text>
<text font-size="21" transform="rotate(110 954.9723038931127 553.8134815255529)" x="954.9723038931127" y="553.8134815255529">
Logo
</text>
<text font-size="22" transform="rotate(120.00000000000001 951.9333333333333 553.9718765143889)" x="951.9333333333333" y="553.9718765143889">
Logo
</text>
<text font-size="23" transform="rotate(130 948.6655118158607 553.5079170136646)" x="948.6655118158607" y="553.5079170136646">
Logo
</text>
<text font-size="24" transform="rotate(140 945.2919466921156 552.3415221059815)" x="945.2919466921156" y="552.3415221059815">
Logo
</text>
<text font-size="25" transform="rotate(149.99999999999997 941.9578040878242 550.4166666666666)" x="941.9578040878242" y="550.4166666666666">
Logo
</text>
<text font-size="26" transform="rotate(159.99999999999997 938.8255929449575 547.7068538962717)" x="938.8255929449575" y="547.7068538962717">
Logo
</text>
<text font-size="27" transform="rotate(169.99999999999997 936.0691716018033 544.2196507173064)" x="936.0691716018033" y="544.2196507173064">
Logo
</text>
<text font-size="28" transform="rotate(179.99999999999994 933.8666666666667 540)" x="933.8666666666667" y="540">
Logo
</text>
<text font-size="29" transform="rotate(189.99999999999994 932.3925559905578 535.132062752737)" x="932.3925559905578" y="535.132062752737">
Logo
</text>
<text font-size="30" transform="rotate(199.99999999999994 931.8092213764228 529.73939570023)" x="931.8092213764228" y="529.73939570023">
Logo
</text>
<text font-size="31" transform="rotate(209.99999999999991 932.2583195654385 523.9833333333333)" x="932.2583195654385" y="523.9833333333333">
Logo
</text>
<text font-size="32" transform="rotate(219.99999999999991 933.8523496748721 518.0595162560328)" x="933.8523496748721" y="518.0595162560328">
Logo
</text>
<text font-size="33" transform="rotate(229.99999999999991 936.6668097683786 512.1925867147811)" x="936.6668097683786" y="512.1925867147811">
Logo
</text>
<text font-size="34" transform="rotate(239.9999999999999 940.7333333333332 506.62915444083967)" x="940.7333333333332" y="506.62915444083967">
Logo
</text>
<text font-size="35" transform="rotate(249.9999999999999 946.0341774808684 501.62921798457546)" x="946.0341774808684" y="501.62921798457546">
Logo
</text>
<text font-size="36" transform="rotate(259.99999999999983 952.4983987247884 497.45630506987266)" x="952.4983987247884" y="497.45630506987266">
Logo
</text>
<text font-size="37" transform="rotate(269.99999999999983 959.9999999999999 494.3666666666667)" x="959.9999999999999" y="494.3666666666667">
Logo
</text>
<text font-size="38" transform="rotate(279.99999999999983 968.3582656183681 492.5979201550124)" x="968.3582656183681" y="492.5979201550124">
Logo
</text>
<text font-size="39" transform="rotate(289.99999999999983 977.3404212666112 492.3575841261544)" x="977.3404212666112" y="492.3575841261544">
Logo
</text>
<text font-size="40" transform="rotate(299.99999999999983 986.6666666666665 493.81197846482985)" x="986.6666666666665" y="493.81197846482985">
Logo
</text>
<text font-size="41" transform="rotate(309.99999999999983 996.0175323961023 497.0759763705665)" x="996.0175323961023" y="497.0759763705665">
Logo
</text>
<text font-size="42" transform="rotate(319.9999999999998 1005.0434132553958 502.2040885504313)" x="1005.0434132553958" y="502.2040885504313">
Logo
</text>
<text font-size="43" transform="rotate(329.9999999999998 1013.3760323865807 509.1833333333331)" x="1013.3760323865807" y="509.1833333333331">
Logo
</text>
<text font-size="44" transform="rotate(339.9999999999998 1020.6414971280506 517.92830008405)" x="1020.6414971280506" y="517.92830008405">
Logo
</text>
<text font-size="45" transform="rotate(349.9999999999998 1026.474523328324 528.2787480074819)" x="1026.474523328324" y="528.2787480074819">
Logo
</text>
<text font-size="46" transform="rotate(359.9999999999997 1030.5333333333333 539.9999999999997)" x="1030.5333333333333" y="539.9999999999997">
Logo
</text>
<text font-size="47" transform="rotate(369.9999999999998 1032.514677546799 552.7862941488746)" x="1032.514677546799" y="552.7862941488746">
Logo
</text>
<text font-size="48" transform="rotate(379.9999999999997 1032.1683932763578 566.267147007411)" x="1032.1683932763578" y="566.267147007411">
Logo
</text>
<text font-size="49" transform="rotate(389.9999999999997 1029.3108998162147 580.0166666666663)" x="1029.3108998162147" y="580.0166666666663">
Logo
</text>
<text font-size="50" transform="rotate(399.9999999999997 1023.8370369265818 593.5656341405446)" x="1023.8370369265818" y="593.5656341405446">
Logo
</text>
<text font-size="51" transform="rotate(409.9999999999997 1015.7296857598234 606.4160532184151)" x="1015.7296857598234" y="606.4160532184151">
Logo
</text>
<text font-size="52" transform="rotate(419.99999999999966 1005.0666666666672 618.0577563944371)" x="1005.0666666666672" y="618.0577563944371">
Logo
</text>
<text font-size="53" transform="rotate(429.9999999999997 992.0244860867273 627.9865523929203)" x="992.0244860867273" y="627.9865523929203">
Logo
</text>
<text font-size="54" transform="rotate(439.99999999999966 976.8786028692263 635.7233135927866)" x="976.8786028692263" y="635.7233135927866">
Logo
</text>
<text font-size="55" transform="rotate(449.99999999999966 960.0000000000007 640.8333333333334)" x="960.0000000000007" y="640.8333333333334">
Logo
</text>
<text font-size="56" transform="rotate(459.99999999999966 941.8479771612175 642.9452371148762)" x="941.8479771612175" y="642.9452371148762">
Logo
</text>
<text font-size="57" transform="rotate(469.99999999999966 922.9592184778307 641.768710831114)" x="922.9592184778307" y="641.768710831114">
Logo
</text>
<text font-size="58" transform="rotate(479.99999999999966 903.933333333334 637.1103152776955)" x="903.933333333334" y="637.1103152776955">
Logo
</text>
<text font-size="59" transform="rotate(489.99999999999966 885.4152110227058 628.8866902165726)" x="885.4152110227058" y="628.8866902165726">
Logo
</text>
<text font-size="60" transform="rotate(499.9999999999996 868.0746668257232 617.1345131623854)" x="868.0746668257232" y="617.1345131623854">
Logo
</text>
<text font-size="61" transform="rotate(509.99999999999966 852.5839824172706 602.0166666666674)" x="852.5839824172706" y="602.0166666666674">
Logo
</text>
<text font-size="62" transform="rotate(519.9999999999997 839.5940521899659 583.8241810314632)" x="839.5940521899659" y="583.8241810314632">
Logo
</text>
<text font-size="63" transform="rotate(529.9999999999995 829.709934276485 562.9736539053358)" x="829.709934276485" y="562.9736539053358">
Logo
</text>
<text font-size="64" transform="rotate(539.9999999999997 823.4666666666667 540.000000000001)" x="823.4666666666667" y="540.000000000001">
Logo
</text>
<text font-size="65" transform="rotate(549.9999999999995 821.3062414507806 515.5445483119083)" x="821.3062414507806" y="515.5445483119083">
Logo
</text>
<text font-size="66" transform="rotate(559.9999999999995 823.5566314618857 490.338675189114)" x="823.5566314618857" y="490.338675189114">
Logo
</text>
<text font-size="67" transform="rotate(569.9999999999995 830.413732080388 465.1833333333344)" x="830.413732080388" y="465.1833333333344">
Logo
</text>
<text font-size="68" transform="rotate(579.9999999999995 841.927016500594 440.9250030936491)" x="841.927016500594" y="440.9250030936491">
Logo
</text>
<text font-size="69" transform="rotate(589.9999999999995 857.9896063427452 418.4287468770191)" x="857.9896063427452" y="418.4287468770191">
Logo
</text>
<text font-size="70" transform="rotate(599.9999999999995 878.3333333333321 398.54918404854243)" x="878.3333333333321" y="398.54918404854243">
Logo
</text>
<text font-size="71" transform="rotate(609.9999999999995 902.5292152498421 382.1003166206084)" x="902.5292152498421" y="382.1003166206084">
Logo
</text>
<text font-size="72" transform="rotate(619.9999999999995 929.9935948991529 369.82522027949074)" x="929.9935948991529" y="369.82522027949074">
Logo
</text>
<text font-size="73" transform="rotate(629.9999999999995 959.9999999999983 362.3666666666667)" x="959.9999999999983" y="362.3666666666667">
Logo
</text>
<text font-size="74" transform="rotate(639.9999999999995 991.696580696802 360.2397581501713)" x="991.696580696802" y="360.2397581501713">
Logo
</text>
<text font-size="75" transform="rotate(649.9999999999994 1024.1287768735613 363.80763360264154)" x="1024.1287768735613" y="363.80763360264154">
Logo
</text>
<text font-size="76" transform="rotate(659.9999999999995 1056.266666666665 373.26124225803517)" x="1056.266666666665" y="373.26124225803517">
Logo
</text>
<text font-size="77" transform="rotate(669.9999999999994 1087.0362579277148 388.604083224918)" x="1087.0362579277148" y="388.604083224918">
Logo
</text>
<text font-size="78" transform="rotate(679.9999999999994 1115.3538130645275 409.64267275556824)" x="1115.3538130645275" y="409.64267275556824">
Logo
</text>
<text font-size="79" transform="rotate(689.9999999999994 1140.1621515006216 435.9833333333314)" x="1140.1621515006216" y="435.9833333333314">
Logo
</text>
<text font-size="80" transform="rotate(699.9999999999993 1160.467759100993 467.0357027571885)" x="1160.467759100993" y="467.0357027571885">
Logo
</text>
<text font-size="81" transform="rotate(709.9999999999994 1175.3774555837695 502.02314354424)" x="1175.3774555837695" y="502.02314354424">
Logo
</text>
<text font-size="82" transform="rotate(719.9999999999994 1184.1333333333332 539.9999999999975)" x="1184.1333333333332" y="539.9999999999975">
Logo
</text>
<text font-size="83" transform="rotate(729.9999999999993 1186.1446870167038 579.8754098649135)" x="1186.1446870167038" y="579.8754098649135">
Logo
</text>
<text font-size="84" transform="rotate(739.9999999999993 1181.0157044088467 620.4431377101947)" x="1181.0157044088467" y="620.4431377101947">
Logo
</text>
<text font-size="85" transform="rotate(749.9999999999994 1168.5677847447537 660.4166666666642)" x="1168.5677847447537" y="660.4166666666642">
Logo
</text>
<text font-size="86" transform="rotate(759.9999999999993 1148.8554900436006 698.4685720413859)" x="1148.8554900436006" y="698.4685720413859">
Logo
</text>
<text font-size="87" transform="rotate(769.9999999999993 1122.1753139239163 733.2730129989162)" x="1122.1753139239163" y="733.2730129989162">
Logo
</text>
<text font-size="88" transform="rotate(779.9999999999994 1089.0666666666693 763.5500242302215)" x="1089.0666666666693" y="763.5500242302215">
Logo
</text>
<text font-size="89" transform="rotate(789.9999999999993 1050.3047185094238 788.1101749748382)" x="1050.3047185094238" y="788.1101749748382">
Logo
</text>
<text font-size="90" transform="rotate(799.9999999999993 1006.8850079700746 805.8980933132956)" x="1006.8850079700746" y="805.8980933132956">
Logo
</text>
<text font-size="91" transform="rotate(809.9999999999993 960.0000000000036 816.0333333333333)" x="960.0000000000036" y="816.0333333333333">
Logo
</text>
<text font-size="92" transform="rotate(819.9999999999992 911.0080608075737 817.8470940498449)" x="911.0080608075737" y="817.8470940498449">
Logo
</text>
<text font-size="93" transform="rotate(829.9999999999993 861.3955926792133 810.9133825725787)" x="861.3955926792133" y="810.9133825725787">
Logo
</text>
<text font-size="94" transform="rotate(839.9999999999993 812.7333333333368 795.0733489279787)" x="812.7333333333368" y="795.0733489279787">
Logo
</text>
<text font-size="95" transform="rotate(849.9999999999992 766.628060752636 770.4517033049619)" x="766.628060752636" y="770.4517033049619">
Logo
</text>
<text font-size="96" transform="rotate(859.9999999999992 724.6711470738527 737.4643536957082)" x="724.6711470738527" y="737.4643536957082">
Logo
</text>
<text font-size="97" transform="rotate(869.9999999999991 688.3855658597429 696.8166666666705)" x="688.3855658597429" y="696.8166666666705">
Logo
</text>
<text font-size="98" transform="rotate(879.9999999999992 659.1730689990727 649.492048549995)" x="659.1730689990727" y="649.492048549995">
Logo
</text>
<text font-size="99" transform="rotate(889.9999999999992 638.2633070909125 596.7308596437908)" x="638.2633070909125" y="596.7308596437908">
Logo
</text>
<text font-size="100" transform="rotate(899.9999999999991 626.6666666666666 540.0000000000049)" x="626.6666666666666" y="540.0000000000049">
Logo
</text>
<text font-size="101" transform="rotate(909.9999999999992 625.1325370507479 480.9538313206598)" x="625.1325370507479" y="480.9538313206598">
Logo
</text>
<text font-size="102" transform="rotate(919.9999999999992 634.1145991114452 421.387414294663)" x="634.1145991114452" y="421.387414294663">
Logo
</text>
<text font-size="103" transform="rotate(929.9999999999991 653.7445497083603 363.18333333333806)" x="653.7445497083603" y="363.18333333333806">
Logo
</text>
<text font-size="104" transform="rotate(939.9999999999991 683.8154434408341 308.25364045435066)" x="683.8154434408341" y="308.25364045435066">
Logo
</text>
<text font-size="105" transform="rotate(949.9999999999992 723.7755534401923 258.4786671537793)" x="723.7755534401923" y="258.4786671537793">
Logo
</text>
<text font-size="106" transform="rotate(959.9999999999991 772.7333333333281 215.6446187692713)" x="772.7333333333281" y="215.6446187692713">
Logo
</text>
<text font-size="107" transform="rotate(969.9999999999991 829.4737126354748 181.38197282073986)" x="829.4737126354748" y="181.38197282073986">
Logo
</text>
<text font-size="108" transform="rotate(979.9999999999991 892.4855885230911 157.10674562885458)" x="892.4855885230911" y="157.10674562885458">
Logo
</text>
<text font-size="109" transform="rotate(989.999999999999 959.9999999999934 143.9666666666667)" x="959.9999999999934" y="143.9666666666667">
Logo
</text>
<text font-size="110" transform="rotate(999.9999999999991 1030.0380983256553 142.7942062850749)" x="1030.0380983256553" y="142.7942062850749">
Logo
</text>
<text font-size="111" transform="rotate(1009.9999999999991 1100.4676728638456 154.068240643225)" x="1100.4676728638456" y="154.068240643225">
Logo
</text>
<text font-size="112" transform="rotate(1019.999999999999 1169.0666666666605 177.88591116426312)" x="1169.0666666666605" y="177.88591116426312">
Logo
</text>
<text font-size="113" transform="rotate(1029.999999999999 1233.5918329362416 213.94595019378755)" x="1233.5918329362416" y="213.94595019378755">
Logo
</text>
<text font-size="114" transform="rotate(1039.999999999999 1291.8504527591363 261.5444074837853)" x="1291.8504527591363" y="261.5444074837853">
Logo
</text>
<text font-size="115" transform="rotate(1049.9999999999989 1341.7728655016363 319.58333333332644)" x="1341.7728655016363" y="319.58333333332644">
Logo
</text>
<text font-size="116" transform="rotate(1059.999999999999 1381.4834635098368 386.5925650469858)" x="1381.4834635098368" y="386.5925650469858">
Logo
</text>
<text font-size="117" transform="rotate(1069.999999999999 1409.3677776994691 460.7643365305714)" x="1409.3677776994691" y="460.7643365305714">
Logo
</text>
<text font-size="118" transform="rotate(1079.9999999999989 1424.1333333333332 539.9999999999914)" x="1424.1333333333332" y="539.9999999999914">
Logo
</text>
<text font-size="119" transform="rotate(1089.999999999999 1424.862086346864 621.9677281313714)" x="1424.862086346864" y="621.9677281313714">
Logo
</text>
<text font-size="120" transform="rotate(1099.999999999999 1411.052457977239 704.1696687963124)" x="1411.052457977239" y="704.1696687963124">
Logo
</text>
<text font-size="121" transform="rotate(1109.9999999999989 1382.6492645602702 784.0166666666586)" x="1382.6492645602702" y="784.0166666666586">
Logo
</text>
<text font-size="122" transform="rotate(1119.9999999999989 1340.0601830461019 858.908359419141)" x="1340.0601830461019" y="858.908359419141">
Logo
</text>
<text font-size="123" transform="rotate(1129.999999999999 1284.1577915649293 926.3162126648942)" x="1284.1577915649293" y="926.3162126648942">
Logo
</text>
<text font-size="124" transform="rotate(1139.9999999999989 1216.2666666666755 983.8668869529793)" x="1216.2666666666755" y="983.8668869529793">
Logo
</text>
<text font-size="125" transform="rotate(1149.9999999999989 1138.1354913154623 1029.423239992657)" x="1138.1354913154623" y="1029.423239992657">
Logo
</text>
<text font-size="126" transform="rotate(1159.9999999999989 1051.89461562135 1061.1602628940586)" x="1051.89461562135" y="1061.1602628940586">
Logo
</text>
<text font-size="127" transform="rotate(1169.9999999999989 960.0000000000109 1077.6333333333332)" x="960.0000000000109" y="1077.6333333333332">
Logo
</text>
<text font-size="128" transform="rotate(1179.9999999999989 865.1649419035115 1077.8363408450691)" x="865.1649419035115" y="1077.8363408450691">
Logo
</text>
<text font-size="129" transform="rotate(1189.9999999999989 770.2814264972624 1061.2474967499472)" x="770.2814264972624" y="1061.2474967499472">
Logo
</text>
<text font-size="130" transform="rotate(1199.9999999999989 678.3333333333436 1027.8609774652396)" x="678.3333333333436" y="1027.8609774652396">
Logo
</text>
<text font-size="131" transform="rotate(1209.9999999999989 592.3040610056526 978.2029562788339)" x="592.3040610056526" y="978.2029562788339">
Logo
</text>
<text font-size="132" transform="rotate(1219.9999999999989 515.0813874365055 913.3310437059515)" x="515.0813874365055" y="913.3310437059515">
Logo
</text>
<text font-size="133" transform="rotate(1229.9999999999989 449.3625544152419 834.8166666666776)" x="449.3625544152419" y="834.8166666666776">
Logo
</text>
<text font-size="134" transform="rotate(1239.9999999999989 397.5626433722788 744.7104564518692)" x="397.5626433722788" y="744.7104564518692">
Logo
</text>
<text font-size="135" transform="rotate(1249.9999999999986 361.7292900450859 645.4912679326733)" x="361.7292900450859" y="645.4912679326733">
Logo
</text>
<text font-size="136" transform="rotate(1259.9999999999989 343.4666666666667 540.0000000000136)" x="343.4666666666667" y="540.0000000000136">
Logo
</text>
<text font-size="137" transform="rotate(1269.9999999999989 343.8714427904598 431.35991177899325)" x="343.8714427904598" y="431.35991177899325">
Logo
</text>
<text font-size="138" transform="rotate(1279.9999999999986 363.48312432510056 322.885613016879)" x="363.48312432510056" y="322.885613016879">
Logo
</text>
<text font-size="139" transform="rotate(1289.9999999999986 402.2507724493546 217.98333333334597)" x="402.2507724493546" y="217.98333333334597">
Logo
</text>
<text font-size="140" transform="rotate(1299.9999999999989 459.51763049559133 120.04542833813912)" x="459.51763049559133" y="120.04542833813912">
Logo
</text>
<text font-size="141" transform="rotate(1309.9999999999989 534.0246510607185 32.34234754506309)" x="534.0246510607185" y="32.34234754506309">
Logo
</text>
<text font-size="142" transform="rotate(1319.9999999999986 623.9333333333198 -42.08454139697278)" x="623.9333333333198" y="-42.08454139697278">
Logo
</text>
<text font-size="143" transform="rotate(1329.9999999999986 726.867669637765 -100.52581341502923)" x="726.867669637765" y="-100.52581341502923">
Logo
</text>
<text font-size="144" transform="rotate(1339.9999999999989 839.9743795966016 -140.69911888203524)" x="839.9743795966016" y="-140.69911888203524">
Logo
</text>
</svg>